<svg width="72" height="72" viewBox="0 0 72 72" fill="none" xmlns="http://www.w3.org/2000/svg">
<g filter="url(#filter0_d_310_6670)">
<rect x="9.59998" y="9.59961" width="48" height="48" rx="24" fill="white" fill-opacity="0.8" shape-rendering="crispEdges"/>
<path d="M21.6 28.9355V36.9358H28.2637V38.264H33.6V36.9358H45.6V28.9355H21.6ZM28.2637 35.5955H26.9355V31.5958H25.5997V35.5955H22.9357V30.2675H28.2637V35.5955ZM32.2642 35.5955V36.9358H29.6002V30.2675H34.9365V35.5993H32.2642V35.5955ZM44.268 35.5955H42.936V31.5958H41.6002V35.5955H40.2645V31.5958H38.9362V35.5955H36.264V30.2675H44.268V35.5955ZM32.2642 31.5995H33.6V34.2673H32.2642V31.5995Z" fill="black"/>
</g>
<defs>
<filter id="filter0_d_310_6670" x="-2.47955e-05" y="-0.000391006" width="71.2" height="71.2" filterUnits="userSpaceOnUse" color-interpolation-filters="sRGB">
<feFlood flood-opacity="0" result="BackgroundImageFix"/>
<feColorMatrix in="SourceAlpha" type="matrix" values="0 0 0 0 0 0 0 0 0 0 0 0 0 0 0 0 0 0 127 0" result="hardAlpha"/>
<feOffset dx="2" dy="2"/>
<feGaussianBlur stdDeviation="5.8"/>
<feComposite in2="hardAlpha" operator="out"/>
<feColorMatrix type="matrix" values="0 0 0 0 0 0 0 0 0 0 0 0 0 0 0 0 0 0 0.16 0"/>
<feBlend mode="normal" in2="BackgroundImageFix" result="effect1_dropShadow_310_6670"/>
<feBlend mode="normal" in="SourceGraphic" in2="effect1_dropShadow_310_6670" result="shape"/>
</filter>
</defs>
</svg>
